<svg width="14" height="14" viewBox="0 0 14 14" fill="none" xmlns="http://www.w3.org/2000/svg">
<path d="M6.99768 10.5092C7.22423 10.5092 7.40784 10.3255 7.40784 10.0991V8.40002C7.40784 8.17348 7.22423 7.98987 6.99768 7.98987C6.77124 7.98987 6.58752 8.17348 6.58752 8.40002V10.0991C6.58752 10.3255 6.77124 10.5092 6.99768 10.5092Z" fill="white"/>
<path d="M11.6984 4.4989H9.75723V2.50089C9.75723 1.12184 8.51929 0 6.99765 0C5.47612 0 4.23817 1.12184 4.23817 2.50089V4.4989H2.29688C2.07033 4.4989 1.88672 4.68262 1.88672 4.90906V10.1545C1.88672 12.2749 3.61183 14 5.73225 14H8.26315C10.3836 14 12.1087 12.2749 12.1087 10.1545V4.90906C12.1086 4.68262 11.925 4.4989 11.6984 4.4989ZM5.05849 2.50089C5.05849 1.57419 5.92836 0.820312 6.99765 0.820312C8.06694 0.820312 8.93692 1.57419 8.93692 2.50089V4.4989H5.05849V2.50089ZM11.2883 10.1545C11.2883 11.8225 9.93123 13.1797 8.26305 13.1797H5.73225C4.06418 13.1797 2.70703 11.8225 2.70703 10.1545V5.31921H11.2883V10.1545Z" fill="white"/>
</svg>
