<svg width="14" height="14" viewBox="0 0 14 14" fill="none" xmlns="http://www.w3.org/2000/svg">
<path d="M14 7C14 3.13118 10.8692 0 7 0C3.13118 0 0 3.13075 0 7C0 10.8345 3.10458 14 7 14C10.8794 14 14 10.8522 14 7ZM7 0.820312C10.4075 0.820312 13.1797 3.5925 13.1797 7C13.1797 8.24649 12.8089 9.4446 12.1214 10.4594C9.36053 7.48962 4.64449 7.48428 1.8786 10.4594C1.19106 9.4446 0.820312 8.24649 0.820312 7C0.820312 3.5925 3.5925 0.820312 7 0.820312ZM2.39023 11.1152C4.84497 8.36185 9.15567 8.36249 11.6097 11.1152C9.1467 13.8708 4.85426 13.8716 2.39023 11.1152Z" fill="white"/>
<path d="M7 7.41016C8.35693 7.41016 9.46094 6.30615 9.46094 4.94922V4.12891C9.46094 2.77197 8.35693 1.66797 7 1.66797C5.64307 1.66797 4.53906 2.77197 4.53906 4.12891V4.94922C4.53906 6.30615 5.64307 7.41016 7 7.41016ZM5.35938 4.12891C5.35938 3.22421 6.09531 2.48828 7 2.48828C7.90469 2.48828 8.64062 3.22421 8.64062 4.12891V4.94922C8.64062 5.85391 7.90469 6.58984 7 6.58984C6.09531 6.58984 5.35938 5.85391 5.35938 4.94922V4.12891Z" fill="white"/>
</svg>
